<svg xmlns="http://www.w3.org/2000/svg" xmlns:oryx="http://oryx-editor.org" id="_F2DACD7D-0546-4D67-8C0D-FBBCB049B22B" width="390.453125" height="281" xmlns:xlink="http://www.w3.org/1999/xlink" xmlns:svg="http://www.w3.org/2000/svg"><defs><marker id="_9FA75BC9-4692-4645-82EA-354145ECAC67start" refX="1" refY="5" markerUnits="userSpaceOnUse" markerWidth="17" markerHeight="11" orient="auto" fill="#000000" stroke="#000000"> 	  		<path id="_9FA75BC9-4692-4645-82EA-354145ECAC67conditional" d="M 0 5 L 8 0 L 16 5 L 8 10 L 0 5" fill="white" stroke="#000000" stroke-width="1" display="none"/> 			<path id="_9FA75BC9-4692-4645-82EA-354145ECAC67default" d="M 5 0 L 11 10" fill="white" stroke="#000000" stroke-width="1" display="none"/> 	  	</marker><marker id="_9FA75BC9-4692-4645-82EA-354145ECAC67end" refX="15" refY="6" markerUnits="userSpaceOnUse" markerWidth="15" markerHeight="12" orient="auto" fill="#000000" stroke="#000000"> 	  		<path id="_9FA75BC9-4692-4645-82EA-354145ECAC67frame2" d="M 0 1 L 15 6 L 0 11z" fill="#000000" stroke="#000000" stroke-linejoin="round" stroke-width="2"/> 	  	</marker><marker id="_7A7F96EF-24DD-49D3-9DDF-35AEFA47BBDFstart" refX="1" refY="5" markerUnits="userSpaceOnUse" markerWidth="17" markerHeight="11" orient="auto" fill="#000000" stroke="#000000"> 	  		<path id="_7A7F96EF-24DD-49D3-9DDF-35AEFA47BBDFconditional" d="M 0 5 L 8 0 L 16 5 L 8 10 L 0 5" fill="white" stroke="#000000" stroke-width="1" display="none"/> 			<path id="_7A7F96EF-24DD-49D3-9DDF-35AEFA47BBDFdefault" d="M 5 0 L 11 10" fill="white" stroke="#000000" stroke-width="1" display="none"/> 	  	</marker><marker id="_7A7F96EF-24DD-49D3-9DDF-35AEFA47BBDFend" refX="15" refY="6" markerUnits="userSpaceOnUse" markerWidth="15" markerHeight="12" orient="auto" fill="#000000" stroke="#000000"> 	  		<path id="_7A7F96EF-24DD-49D3-9DDF-35AEFA47BBDFframe2" d="M 0 1 L 15 6 L 0 11z" fill="#000000" stroke="#000000" stroke-linejoin="round" stroke-width="2"/> 	  	</marker><marker id="_DEBD2C35-B9E2-4449-9A79-64F981B0AAAEstart" refX="1" refY="5" markerUnits="userSpaceOnUse" markerWidth="17" markerHeight="11" orient="auto" fill="#000000" stroke="#000000"> 	  		<path id="_DEBD2C35-B9E2-4449-9A79-64F981B0AAAEconditional" d="M 0 5 L 8 0 L 16 5 L 8 10 L 0 5" fill="white" stroke="#000000" stroke-width="1" display="none"/> 			<path id="_DEBD2C35-B9E2-4449-9A79-64F981B0AAAEdefault" d="M 5 0 L 11 10" fill="white" stroke="#000000" stroke-width="1" display="none"/> 	  	</marker><marker id="_DEBD2C35-B9E2-4449-9A79-64F981B0AAAEend" refX="15" refY="6" markerUnits="userSpaceOnUse" markerWidth="15" markerHeight="12" orient="auto" fill="#000000" stroke="#000000"> 	  		<path id="_DEBD2C35-B9E2-4449-9A79-64F981B0AAAEframe2" d="M 0 1 L 15 6 L 0 11z" fill="#000000" stroke="#000000" stroke-linejoin="round" stroke-width="2"/> 	  	</marker><marker id="_1C8D544F-E7F9-4CB7-992F-B36D327FB5DDstart" refX="1" refY="5" markerUnits="userSpaceOnUse" markerWidth="17" markerHeight="11" orient="auto" fill="#000000" stroke="#000000"> 	  		<path id="_1C8D544F-E7F9-4CB7-992F-B36D327FB5DDconditional" d="M 0 5 L 8 0 L 16 5 L 8 10 L 0 5" fill="white" stroke="#000000" stroke-width="1" display="none"/> 			<path id="_1C8D544F-E7F9-4CB7-992F-B36D327FB5DDdefault" d="M 5 0 L 11 10" fill="white" stroke="#000000" stroke-width="1" display="none"/> 	  	</marker><marker id="_1C8D544F-E7F9-4CB7-992F-B36D327FB5DDend" refX="15" refY="6" markerUnits="userSpaceOnUse" markerWidth="15" markerHeight="12" orient="auto" fill="#000000" stroke="#000000"> 	  		<path id="_1C8D544F-E7F9-4CB7-992F-B36D327FB5DDframe2" d="M 0 1 L 15 6 L 0 11z" fill="#000000" stroke="#000000" stroke-linejoin="round" stroke-width="2"/> 	  	</marker></defs><g stroke="none" font-family="Verdana, sans-serif" font-size-adjust="none" font-style="normal" font-variant="normal" font-weight="normal" line-heigth="normal" font-size="12"><g class="stencils" transform="translate(15, 16)"><g class="me"/><g class="children"><g id="_60CC1928-B0E7-429C-9087-8C4FD4892465" bpmn2nodeid="_DA17FD72-019F-4173-AA9C-C6AA75FC6636"><g class="stencils" transform="translate(28, 42)"><g class="me"><g pointer-events="fill" id="_60CC1928-B0E7-429C-9087-8C4FD4892465">        <defs id="_60CC1928-B0E7-429C-9087-8C4FD4892465__60CC1928-B0E7-429C-9087-8C4FD4892465_5"> 		<radialGradient id="_60CC1928-B0E7-429C-9087-8C4FD4892465background" cx="10%" cy="10%" r="100%" fx="10%" fy="10%"> 			<stop offset="0%" stop-color="#ffffff" stop-opacity="1" id="_60CC1928-B0E7-429C-9087-8C4FD4892465__60CC1928-B0E7-429C-9087-8C4FD4892465_6"/> 			<stop id="_60CC1928-B0E7-429C-9087-8C4FD4892465fill_el" offset="100%" stop-color="#9acd32" stop-opacity="1"/> 		</radialGradient> 	</defs> 	     <circle id="_60CC1928-B0E7-429C-9087-8C4FD4892465bg_frame" cx="15" cy="15" r="15" stroke="#000000" fill="url(#_60CC1928-B0E7-429C-9087-8C4FD4892465background) white" stroke-width="1" style="stroke-dasharray: 5.5, 3"/>      <circle id="_60CC1928-B0E7-429C-9087-8C4FD4892465frame" cx="15" cy="15" r="15" stroke="#000000" fill="none" stroke-width="1" display="inherit"/>  	<text font-size="11" id="_60CC1928-B0E7-429C-9087-8C4FD4892465text_name" x="15" y="32" oryx:align="top center" stroke="black" stroke-width="0pt" letter-spacing="-0.01px" fill="#000000" text-anchor="middle" transform="rotate(0 15 32)" visibility="inherit" oryx:fontSize="11"><tspan x="15" y="32" dy="11">Start</tspan></text>   </g></g><g class="children" style="overflow:hidden"/><g class="edge"/></g><g class="controls"><g class="dockers"/><g class="magnets" transform="translate(28, 42)"><g pointer-events="all" display="none" transform="translate(7, 7)"><circle cx="8" cy="8" r="4" stroke="none" fill="red" fill-opacity="0.3"/></g></g></g></g><g id="_D48EEA7C-E156-4BBC-9CFF-1E7D8EED2039" bpmn2nodeid="_A6FC49F5-DC9F-43A4-854B-0EE2BE8A8E42"><g class="stencils" transform="translate(120, 30)"><g class="me"><g pointer-events="fill" oryx:minimumSize="50 40" id="_D48EEA7C-E156-4BBC-9CFF-1E7D8EED2039">   	<defs id="_D48EEA7C-E156-4BBC-9CFF-1E7D8EED2039__D48EEA7C-E156-4BBC-9CFF-1E7D8EED2039_17"> 		<radialGradient id="_D48EEA7C-E156-4BBC-9CFF-1E7D8EED2039background" cx="10%" cy="10%" r="100%" fx="10%" fy="10%"> 			<stop offset="0%" stop-color="#ffffff" stop-opacity="1" id="_D48EEA7C-E156-4BBC-9CFF-1E7D8EED2039__D48EEA7C-E156-4BBC-9CFF-1E7D8EED2039_18"/> 			<stop id="_D48EEA7C-E156-4BBC-9CFF-1E7D8EED2039fill_el" offset="100%" stop-color="#fafad2" stop-opacity="1"/> 		</radialGradient> 		<radialGradient id="_D48EEA7C-E156-4BBC-9CFF-1E7D8EED2039borderbackground" cx="10%" cy="10%" r="100%" fx="10%" fy="10%"> 			<stop offset="0%" stop-color="#ffffff" stop-opacity="1" id="_D48EEA7C-E156-4BBC-9CFF-1E7D8EED2039__D48EEA7C-E156-4BBC-9CFF-1E7D8EED2039_19"/> 			<stop id="_D48EEA7C-E156-4BBC-9CFF-1E7D8EED2039fill_border" offset="100%" stop-color="#000000" stop-opacity="1" stroke="#000000"/> 		</radialGradient> 	</defs> 	 	<rect id="_D48EEA7C-E156-4BBC-9CFF-1E7D8EED2039text_frame" oryx:anchors="bottom top right left" x="1" y="1" width="79" height="54" rx="10" ry="10" stroke="none" stroke-width="0" fill="none"/> 	<rect id="_D48EEA7C-E156-4BBC-9CFF-1E7D8EED2039bg_frame" oryx:resize="vertical horizontal" x="0" y="0" width="85" height="55" rx="10" ry="10" stroke="#000000" stroke-width="1" fill="url(#_D48EEA7C-E156-4BBC-9CFF-1E7D8EED2039background) #ffffcc"/> 		<text font-size="12" id="_D48EEA7C-E156-4BBC-9CFF-1E7D8EED2039text_name" x="42.5" y="27.5" oryx:align="middle center" oryx:fittoelem="text_frame" stroke="black" text-anchor="middle" stroke-width="0pt" letter-spacing="-0.01px" fill="#000000" transform="rotate(0 42.5 27.5)" visibility="inherit" oryx:fontSize="12"><tspan x="42.5" y="27.5" dy="-1">Throw </tspan><tspan x="42.5" y="27.5" dy="11">Exception</tspan></text>     <g id="_D48EEA7C-E156-4BBC-9CFF-1E7D8EED2039manualTask" transform="scale(0.7,0.7) translate(8,8)" display="none">     	<path oryx:anchors="top left" id="_D48EEA7C-E156-4BBC-9CFF-1E7D8EED2039frame" style="opacity:1;fill:none;fill-opacity:1;stroke-width:1" d="M0.5,3.751l4.083-3.25c0,0,11.166,0.083,12.083,0.083s-2.417,2.917-1.5,2.917     s11.667,0,12.584,0c1.166,1.708-0.168,3.167-0.834,3.667s0.875,1.917-1,4.417c-0.75,0.25,0.75,1.875-1.333,3.333     c-1.167,0.583,0.583,1.542-1.25,2.833c-1.167,0-20.833,0.083-20.833,0.083l-2-1.333V3.751z" stroke="#000000"/> 		<path id="_D48EEA7C-E156-4BBC-9CFF-1E7D8EED2039frame2" oryx:anchors="top left" style="opacity:1;fill:none;stroke-width:2" d="M 13.5 7 L 27 7" stroke="#000000"/> 		<path id="_D48EEA7C-E156-4BBC-9CFF-1E7D8EED2039frame3" oryx:anchors="top left" style="opacity:1;fill:none;stroke-width:2" d="M 13.5 11 L 26 11" stroke="#000000"/> 		<path id="_D48EEA7C-E156-4BBC-9CFF-1E7D8EED2039frame4" oryx:anchors="top left" style="opacity:1;fill:none;stroke-width:1.5" d="M 14 14.5 L 25 14.5" stroke="#000000"/> 		<path id="_D48EEA7C-E156-4BBC-9CFF-1E7D8EED2039frame5" oryx:anchors="top left" style="opacity:1;fill:none;stroke-width:1.5" d="M 8.2 3.1 L 15 3.1" stroke="#000000"/> 	</g> 	 	<g id="_D48EEA7C-E156-4BBC-9CFF-1E7D8EED2039businessRuleTask" transform="scale(0.7,0.7) translate(8,8)" display="none"> 		<rect id="_D48EEA7C-E156-4BBC-9CFF-1E7D8EED2039frame6" oryx:anchors="top left" x="0" y="0" width="22" height="4" style="opacity:1;fill:#B3B1B3;fill-opacity:1;" stroke="#000000"/> 		<rect id="_D48EEA7C-E156-4BBC-9CFF-1E7D8EED2039frame7" oryx:anchors="top left" x="0" y="4" style="opacity:1;fill:none;" width="22" height="12" stroke="#000000"/> 		<path id="_D48EEA7C-E156-4BBC-9CFF-1E7D8EED2039frame8" oryx:anchors="top left" style="opacity:1;fill:none;" d="M 0 10 L 22 10" stroke="#000000"/> 		<path id="_D48EEA7C-E156-4BBC-9CFF-1E7D8EED2039frame9" oryx:anchors="top left" style="opacity:1; fill:none;" d="M 7 4 L 7 16" stroke="#000000"/> 	</g> 	 	<g id="_D48EEA7C-E156-4BBC-9CFF-1E7D8EED2039scriptTask" transform="scale(0.7,0.7) translate(8,8)" display="none"> 		<path oryx:anchors="top left" id="_D48EEA7C-E156-4BBC-9CFF-1E7D8EED2039frame10" style="opacity:1;fill:none;" stroke="#000000" d="M6.402,0.5h14.5c0,0-5.833,2.833-5.833,5.583s4.417,6,4.417,9.167    s-4.167,5.083-4.167,5.083H0.235c0,0,5-2.667,5-5s-4.583-6.75-4.583-9.25S6.402,0.5,6.402,0.5z"/> 		<path oryx:anchors="top left" id="_D48EEA7C-E156-4BBC-9CFF-1E7D8EED2039frame11" style="opacity:1;fill:none;stroke-width:1.5" d="M 3.5 4.5 L 13.5 4.5" stroke="#000000"/> 		<path oryx:anchors="top left" id="_D48EEA7C-E156-4BBC-9CFF-1E7D8EED2039frame12" style="opacity:1;fill:none;stroke-width:1.5" d="M 3.8 8.5 L 13.8 8.5" stroke="#000000"/> 		<path oryx:anchors="top left" id="_D48EEA7C-E156-4BBC-9CFF-1E7D8EED2039frame13" style="opacity:1;fill:none;stroke-width:1.5" d="M 6.3 12.5 L 16.3 12.5" stroke="#000000"/> 		<path oryx:anchors="top left" id="_D48EEA7C-E156-4BBC-9CFF-1E7D8EED2039frame14" style="opacity:1;fill:none;stroke-width:1.5" d="M 6.5 16.5 L 16.5 16.5" stroke="#000000"/> 	</g> 	 	<g id="_D48EEA7C-E156-4BBC-9CFF-1E7D8EED2039userTask" transform="scale(0.7,0.7) translate(8,8)" display="none"> 		<path id="_D48EEA7C-E156-4BBC-9CFF-1E7D8EED2039frame15" oryx:anchors="top left" style="opacity:1;fill:#F4F6F7" stroke="#000000" d="M0.585,24.167h24.083v-7.833c0,0-2.333-3.917-7.083-5.167h-9.25    c-4.417,1.333-7.833,5.75-7.833,5.75L0.585,24.167z"/> 		<path id="_D48EEA7C-E156-4BBC-9CFF-1E7D8EED2039frame16" oryx:anchors="top left" style="opacity:1;fill:none" d="M 6 20 L 6 24" stroke="#000000"/> 		<path id="_D48EEA7C-E156-4BBC-9CFF-1E7D8EED2039frame17" oryx:anchors="top left" style="opacity:1;fill:none" d="M 20 20 L 20 24" stroke="#000000"/> 		<circle id="_D48EEA7C-E156-4BBC-9CFF-1E7D8EED2039frame18" oryx:anchors="top left" fill="black" cx="13.002" cy="5.916" r="5.417" stroke="#000000"/> 		<path id="_D48EEA7C-E156-4BBC-9CFF-1E7D8EED2039frame19" oryx:anchors="top left" style="opacity:1;fill:#F0EFF0;" stroke="#000000" d="M8.043,7.083c0,0,2.814-2.426,5.376-1.807s4.624-0.693,4.624-0.693    c0.25,1.688,0.042,3.75-1.458,5.584c0,0,1.083,0.75,1.083,1.5s0.125,1.875-1,3s-5.5,1.25-6.75,0S8.668,12.834,8.668,12    s0.583-1.25,1.25-1.917C8.835,9.5,7.419,7.708,8.043,7.083z"/> 	</g> 	 	<g id="_D48EEA7C-E156-4BBC-9CFF-1E7D8EED2039serviceTask" transform="scale(0.7,0.7) translate(8,8)" display="inherit"> 		<polygon oryx:anchors="top left" id="_D48EEA7C-E156-4BBC-9CFF-1E7D8EED2039frame20" style="opacity:1;fill:#ffffff" stroke="#000000" points="15.392,5.064 17.954,2.502 20.347,4.895 17.786,7.455     18.729,9.732 22.353,9.732 22.353,13.115 18.731,13.115 17.788,15.392 20.351,17.955 17.958,20.347 15.397,17.786 13.12,18.729     13.12,22.353 9.737,22.353 9.737,18.731 7.46,17.788 4.897,20.35 2.506,17.958 5.066,15.397 4.124,13.12 0.5,13.12 0.5,9.737     4.121,9.737 5.065,7.461 2.503,4.898 4.895,2.506 7.455,5.066 9.732,4.125 9.732,0.5 13.116,0.5 13.116,4.121 "/> 		<circle oryx:anchors="top left" id="_D48EEA7C-E156-4BBC-9CFF-1E7D8EED2039frame21" style="opacity:1;fill:none" stroke="#000000" cx="11.427" cy="11.426" r="3.714"/> 		<polygon oryx:anchors="top left" id="_D48EEA7C-E156-4BBC-9CFF-1E7D8EED2039frame22" style="opacity:1;fill:#ffffff" stroke="#000000" points="21.392,11.064 23.954,8.502 26.347,10.895 23.786,13.455     24.729,15.732 28.353,15.732 28.353,19.115 24.731,19.115 23.788,21.392 26.351,23.955 23.958,26.347 21.397,23.786 19.12,24.729     19.12,28.353 15.737,28.353 15.737,24.731 13.46,23.788 10.897,26.35 8.506,23.958 11.066,21.397 10.124,19.12 6.5,19.12     6.5,15.737 10.121,15.737 11.065,13.461 8.503,10.898 10.895,8.506 13.455,11.066 15.732,10.125 15.732,6.5 19.116,6.5     19.116,10.121 "/> 		<circle oryx:anchors="top left" id="_D48EEA7C-E156-4BBC-9CFF-1E7D8EED2039frame23" style="opacity:1;fill:none;" stroke="#000000" cx="17.427" cy="17.426" r="3.714"/> 	</g> 	 	<g id="_D48EEA7C-E156-4BBC-9CFF-1E7D8EED2039sendTask" display="none"> 		<path id="_D48EEA7C-E156-4BBC-9CFF-1E7D8EED2039stframe24" oryx:anchors="left top" stroke="#FFFFFF" fill="black" stroke-width="1" d="M8,11 L8,21 L24,21 L24,11 L16,17z"/> 		<path id="_D48EEA7C-E156-4BBC-9CFF-1E7D8EED2039stframe25" oryx:anchors="left top" stroke="#FFFFFF" fill="black" stroke-width="1" d="M7,10 L16,17 L25 10z"/> 	</g> 	 	<g id="_D48EEA7C-E156-4BBC-9CFF-1E7D8EED2039receiveTask" display="none"> 		<path id="_D48EEA7C-E156-4BBC-9CFF-1E7D8EED2039frame26" oryx:anchors="left top" stroke="#000000" fill="none" stroke-width="1" d="M8,11 L8,21 L24,21 L24,11z M8,11 L16,17 L24,11"/> 	</g> 	 	<g id="_D48EEA7C-E156-4BBC-9CFF-1E7D8EED2039none" display="inherit"/>  	<g id="_D48EEA7C-E156-4BBC-9CFF-1E7D8EED2039sequential" display="none">         <path oryx:anchors="bottom" fill="none" stroke="#000000" stroke-width="2" d=" M38.35 51  h10  M38.35 47  h10  M38.35 43  h10 " id="_D48EEA7C-E156-4BBC-9CFF-1E7D8EED2039__D48EEA7C-E156-4BBC-9CFF-1E7D8EED2039_20"/>     </g>   </g></g><g class="children" style="overflow:hidden"/><g class="edge"/></g><g class="controls"><g class="dockers"/><g class="magnets" transform="translate(120, 30)"><g pointer-events="all" display="none" transform="translate(-7, 5.75)"><circle cx="8" cy="8" r="4" stroke="none" fill="red" fill-opacity="0.3"/></g><g pointer-events="all" display="none" transform="translate(-7, 19.5)"><circle cx="8" cy="8" r="4" stroke="none" fill="red" fill-opacity="0.3"/></g><g pointer-events="all" display="none" transform="translate(-7, 33.25)"><circle cx="8" cy="8" r="4" stroke="none" fill="red" fill-opacity="0.3"/></g><g pointer-events="all" display="none" transform="translate(13.25, 46)"><circle cx="8" cy="8" r="4" stroke="none" fill="red" fill-opacity="0.3"/></g><g pointer-events="all" display="none" transform="translate(34.5, 46)"><circle cx="8" cy="8" r="4" stroke="none" fill="red" fill-opacity="0.3"/></g><g pointer-events="all" display="none" transform="translate(55.75, 46)"><circle cx="8" cy="8" r="4" stroke="none" fill="red" fill-opacity="0.3"/></g><g pointer-events="all" display="none" transform="translate(76, 5.75)"><circle cx="8" cy="8" r="4" stroke="none" fill="red" fill-opacity="0.3"/></g><g pointer-events="all" display="none" transform="translate(76, 19.5)"><circle cx="8" cy="8" r="4" stroke="none" fill="red" fill-opacity="0.3"/></g><g pointer-events="all" display="none" transform="translate(76, 33.25)"><circle cx="8" cy="8" r="4" stroke="none" fill="red" fill-opacity="0.3"/></g><g pointer-events="all" display="none" transform="translate(13.25, -7)"><circle cx="8" cy="8" r="4" stroke="none" fill="red" fill-opacity="0.3"/></g><g pointer-events="all" display="none" transform="translate(34.5, -7)"><circle cx="8" cy="8" r="4" stroke="none" fill="red" fill-opacity="0.3"/></g><g pointer-events="all" display="none" transform="translate(55.75, -7)"><circle cx="8" cy="8" r="4" stroke="none" fill="red" fill-opacity="0.3"/></g><g pointer-events="all" display="none" transform="translate(34.5, 19.5)"><circle cx="8" cy="8" r="4" stroke="none" fill="red" fill-opacity="0.3"/></g></g></g></g><g id="_383B6ADB-DB12-481E-BC62-B63C6DE63C36" bpmn2nodeid="_9E7CA374-AE51-4F35-BBA1-053D8C44FD1C"><g class="stencils" transform="translate(265, 42)"><g class="me"><g pointer-events="fill" id="_383B6ADB-DB12-481E-BC62-B63C6DE63C36">       <defs id="_383B6ADB-DB12-481E-BC62-B63C6DE63C36__383B6ADB-DB12-481E-BC62-B63C6DE63C36_5"> 		<radialGradient id="_383B6ADB-DB12-481E-BC62-B63C6DE63C36background" cx="10%" cy="10%" r="100%" fx="10%" fy="10%"> 			<stop offset="0%" stop-color="#ffffff" stop-opacity="1" id="_383B6ADB-DB12-481E-BC62-B63C6DE63C36__383B6ADB-DB12-481E-BC62-B63C6DE63C36_6"/> 			<stop id="_383B6ADB-DB12-481E-BC62-B63C6DE63C36fill_el" offset="100%" stop-color="#ff6347" stop-opacity="1"/> 		</radialGradient> 		<radialGradient id="_383B6ADB-DB12-481E-BC62-B63C6DE63C36borderbackground" cx="10%" cy="10%" r="100%" fx="10%" fy="10%"> 			<stop offset="0%" stop-color="#ffffff" stop-opacity="1" id="_383B6ADB-DB12-481E-BC62-B63C6DE63C36__383B6ADB-DB12-481E-BC62-B63C6DE63C36_7"/> 			<stop id="_383B6ADB-DB12-481E-BC62-B63C6DE63C36fill_border" offset="100%" stop-color="#000000" stop-opacity="1" stroke="#000000"/> 		</radialGradient> 	</defs> 	     <circle id="_383B6ADB-DB12-481E-BC62-B63C6DE63C36bg_frame" cx="14" cy="14" r="14" stroke="#000000" fill="url(#_383B6ADB-DB12-481E-BC62-B63C6DE63C36background) white" stroke-width="3"/>          <circle id="_383B6ADB-DB12-481E-BC62-B63C6DE63C36frame" cx="14" cy="14" r="9" stroke="#000000" fill="url(#_383B6ADB-DB12-481E-BC62-B63C6DE63C36borderbackground)" stroke-width="1"/> 	<text font-size="11" id="_383B6ADB-DB12-481E-BC62-B63C6DE63C36text_name" x="14" y="30" oryx:align="top center" stroke="black" stroke-width="0pt" letter-spacing="-0.01px" fill="#000000" text-anchor="middle" transform="rotate(0 14 30)" visibility="inherit" oryx:fontSize="11"><tspan x="14" y="30" dy="11">End</tspan></text>   </g></g><g class="children" style="overflow:hidden"/><g class="edge"/></g><g class="controls"><g class="dockers"/><g class="magnets" transform="translate(265, 42)"><g pointer-events="all" display="none" transform="translate(6, 6)"><circle cx="8" cy="8" r="4" stroke="none" fill="red" fill-opacity="0.3"/></g></g></g></g><g id="_BE5EB762-5C98-4532-806D-B7588F08AD29" bpmn2nodeid="_AF55DA4F-FD67-4B79-AA4E-5ADEA4C6E5B9"><g class="stencils" transform="translate(18, 125)"><g class="me"><g pointer-events="fill" oryx:minimumSize="120 100" oryx:maximumSize="" id="_BE5EB762-5C98-4532-806D-B7588F08AD29">   	<defs id="_BE5EB762-5C98-4532-806D-B7588F08AD29__BE5EB762-5C98-4532-806D-B7588F08AD29_9"> 		<radialGradient id="_BE5EB762-5C98-4532-806D-B7588F08AD29background" cx="10%" cy="10%" r="100%" fx="10%" fy="10%"> 			<stop offset="0%" stop-color="#ffffff" stop-opacity="1" id="_BE5EB762-5C98-4532-806D-B7588F08AD29__BE5EB762-5C98-4532-806D-B7588F08AD29_10"/> 			<stop id="_BE5EB762-5C98-4532-806D-B7588F08AD29fill_el" offset="100%" stop-color="#fafad2" stop-opacity="1"/> 		</radialGradient> 	</defs> 	 	<rect id="_BE5EB762-5C98-4532-806D-B7588F08AD29text_frame" oryx:anchors="bottom top right left" x="0" y="0" width="270" height="115" rx="10" ry="10" stroke="none" stroke-width="0" fill="none"/> 	<rect id="_BE5EB762-5C98-4532-806D-B7588F08AD29bg_frame" oryx:anchors="bottom top right left" oryx:resize="vertical horizontal" x="0" y="0" width="280" height="115" rx="10" ry="10" stroke="#000000" stroke-width="1" stroke-dasharray="2,2,2" fill="url(#_BE5EB762-5C98-4532-806D-B7588F08AD29background) white"/>     	<text font-size="12" id="_BE5EB762-5C98-4532-806D-B7588F08AD29text_name" x="8" y="10" oryx:align="top left" oryx:fittoelem="text_frame" oryx:anchors="left top" stroke="black" stroke-width="0pt" letter-spacing="-0.01px" fill="#000000" text-anchor="start" transform="rotate(0 8 10)" visibility="inherit" oryx:fontSize="12"><tspan x="8" y="10" dy="12">Exception Handler</tspan></text>     	 	<g id="_BE5EB762-5C98-4532-806D-B7588F08AD29none"/>   </g></g><g class="children" style="overflow:hidden"><g id="_01590675-32C1-47B8-AF52-31625065D1A3" bpmn2nodeid="_BE06977A-A36A-4F26-96A8-3A653EF89ADC"><g class="stencils" transform="translate(15, 45)"><g class="me"><g pointer-events="fill" id="_01590675-32C1-47B8-AF52-31625065D1A3">      <defs id="_01590675-32C1-47B8-AF52-31625065D1A3__01590675-32C1-47B8-AF52-31625065D1A3_5"> 		<radialGradient id="_01590675-32C1-47B8-AF52-31625065D1A3background" cx="10%" cy="10%" r="100%" fx="10%" fy="10%"> 			<stop offset="0%" stop-color="#ffffff" stop-opacity="1" id="_01590675-32C1-47B8-AF52-31625065D1A3__01590675-32C1-47B8-AF52-31625065D1A3_6"/> 			<stop id="_01590675-32C1-47B8-AF52-31625065D1A3fill_el" offset="100%" stop-color="#9acd32" stop-opacity="1"/> 		</radialGradient> 	</defs> 	     <circle id="_01590675-32C1-47B8-AF52-31625065D1A3bg_frame" cx="15" cy="15" r="15" stroke="#000000" fill="url(#_01590675-32C1-47B8-AF52-31625065D1A3background) white" stroke-width="1" style="stroke-dasharray: 5.5, 3"/>      <circle id="_01590675-32C1-47B8-AF52-31625065D1A3frame" cx="15" cy="15" r="15" stroke="#000000" fill="none" stroke-width="1" display="none"/>      <path id="_01590675-32C1-47B8-AF52-31625065D1A3body" d=" M7.7124971 20.247342  L22.333334 20.247342  L15.022915000000001 7.575951200000001  L7.7124971 20.247342  z" stroke="black" style="fill:none;stroke-width:1.4;stroke-miterlimit:4;stroke-dasharray:none"/> 	<text font-size="11" id="_01590675-32C1-47B8-AF52-31625065D1A3text_name" x="15" y="32" oryx:align="top center" stroke="black" stroke-width="0pt" letter-spacing="-0.01px" fill="#000000" text-anchor="middle" transform="rotate(0 15 32)" visibility="inherit" oryx:fontSize="11"><tspan x="15" y="32" dy="11">subStart</tspan></text>   </g></g><g class="children" style="overflow:hidden"/><g class="edge"/></g><g class="controls"><g class="dockers"/><g class="magnets" transform="translate(15, 45)"><g pointer-events="all" display="none" transform="translate(7, 7)"><circle cx="8" cy="8" r="4" stroke="none" fill="red" fill-opacity="0.3"/></g></g></g></g><g id="_EE1323A6-0BB4-41C6-A63C-03B155D6053A" bpmn2nodeid="_32311152-FD71-4244-A30A-223DC8C62901"><g class="stencils" transform="translate(92, 34)"><g class="me"><g pointer-events="fill" oryx:minimumSize="50 40" id="_EE1323A6-0BB4-41C6-A63C-03B155D6053A">   	<defs id="_EE1323A6-0BB4-41C6-A63C-03B155D6053A__EE1323A6-0BB4-41C6-A63C-03B155D6053A_17"> 		<radialGradient id="_EE1323A6-0BB4-41C6-A63C-03B155D6053Abackground" cx="10%" cy="10%" r="100%" fx="10%" fy="10%"> 			<stop offset="0%" stop-color="#ffffff" stop-opacity="1" id="_EE1323A6-0BB4-41C6-A63C-03B155D6053A__EE1323A6-0BB4-41C6-A63C-03B155D6053A_18"/> 			<stop id="_EE1323A6-0BB4-41C6-A63C-03B155D6053Afill_el" offset="100%" stop-color="#fafad2" stop-opacity="1"/> 		</radialGradient> 		<radialGradient id="_EE1323A6-0BB4-41C6-A63C-03B155D6053Aborderbackground" cx="10%" cy="10%" r="100%" fx="10%" fy="10%"> 			<stop offset="0%" stop-color="#ffffff" stop-opacity="1" id="_EE1323A6-0BB4-41C6-A63C-03B155D6053A__EE1323A6-0BB4-41C6-A63C-03B155D6053A_19"/> 			<stop id="_EE1323A6-0BB4-41C6-A63C-03B155D6053Afill_border" offset="100%" stop-color="#000000" stop-opacity="1" stroke="#000000"/> 		</radialGradient> 	</defs> 	 	<rect id="_EE1323A6-0BB4-41C6-A63C-03B155D6053Atext_frame" oryx:anchors="bottom top right left" x="1" y="1" width="79" height="54" rx="10" ry="10" stroke="none" stroke-width="0" fill="none"/> 	<rect id="_EE1323A6-0BB4-41C6-A63C-03B155D6053Abg_frame" oryx:resize="vertical horizontal" x="0" y="0" width="85" height="55" rx="10" ry="10" stroke="#000000" stroke-width="1" fill="url(#_EE1323A6-0BB4-41C6-A63C-03B155D6053Abackground) #ffffcc"/> 		<text font-size="12" id="_EE1323A6-0BB4-41C6-A63C-03B155D6053Atext_name" x="42.5" y="27.5" oryx:align="middle center" oryx:fittoelem="text_frame" stroke="black" text-anchor="middle" stroke-width="0pt" letter-spacing="-0.01px" fill="#000000" transform="rotate(0 42.5 27.5)" visibility="inherit" oryx:fontSize="12"><tspan x="42.5" y="27.5" dy="-1">Handle </tspan><tspan x="42.5" y="27.5" dy="11">Exception</tspan></text>     <g id="_EE1323A6-0BB4-41C6-A63C-03B155D6053AmanualTask" transform="scale(0.7,0.7) translate(8,8)" display="none">     	<path oryx:anchors="top left" id="_EE1323A6-0BB4-41C6-A63C-03B155D6053Aframe" style="opacity:1;fill:none;fill-opacity:1;stroke-width:1" d="M0.5,3.751l4.083-3.25c0,0,11.166,0.083,12.083,0.083s-2.417,2.917-1.5,2.917     s11.667,0,12.584,0c1.166,1.708-0.168,3.167-0.834,3.667s0.875,1.917-1,4.417c-0.75,0.25,0.75,1.875-1.333,3.333     c-1.167,0.583,0.583,1.542-1.25,2.833c-1.167,0-20.833,0.083-20.833,0.083l-2-1.333V3.751z" stroke="#000000"/> 		<path id="_EE1323A6-0BB4-41C6-A63C-03B155D6053Aframe2" oryx:anchors="top left" style="opacity:1;fill:none;stroke-width:2" d="M 13.5 7 L 27 7" stroke="#000000"/> 		<path id="_EE1323A6-0BB4-41C6-A63C-03B155D6053Aframe3" oryx:anchors="top left" style="opacity:1;fill:none;stroke-width:2" d="M 13.5 11 L 26 11" stroke="#000000"/> 		<path id="_EE1323A6-0BB4-41C6-A63C-03B155D6053Aframe4" oryx:anchors="top left" style="opacity:1;fill:none;stroke-width:1.5" d="M 14 14.5 L 25 14.5" stroke="#000000"/> 		<path id="_EE1323A6-0BB4-41C6-A63C-03B155D6053Aframe5" oryx:anchors="top left" style="opacity:1;fill:none;stroke-width:1.5" d="M 8.2 3.1 L 15 3.1" stroke="#000000"/> 	</g> 	 	<g id="_EE1323A6-0BB4-41C6-A63C-03B155D6053AbusinessRuleTask" transform="scale(0.7,0.7) translate(8,8)" display="none"> 		<rect id="_EE1323A6-0BB4-41C6-A63C-03B155D6053Aframe6" oryx:anchors="top left" x="0" y="0" width="22" height="4" style="opacity:1;fill:#B3B1B3;fill-opacity:1;" stroke="#000000"/> 		<rect id="_EE1323A6-0BB4-41C6-A63C-03B155D6053Aframe7" oryx:anchors="top left" x="0" y="4" style="opacity:1;fill:none;" width="22" height="12" stroke="#000000"/> 		<path id="_EE1323A6-0BB4-41C6-A63C-03B155D6053Aframe8" oryx:anchors="top left" style="opacity:1;fill:none;" d="M 0 10 L 22 10" stroke="#000000"/> 		<path id="_EE1323A6-0BB4-41C6-A63C-03B155D6053Aframe9" oryx:anchors="top left" style="opacity:1; fill:none;" d="M 7 4 L 7 16" stroke="#000000"/> 	</g> 	 	<g id="_EE1323A6-0BB4-41C6-A63C-03B155D6053AscriptTask" transform="scale(0.7,0.7) translate(8,8)" display="none"> 		<path oryx:anchors="top left" id="_EE1323A6-0BB4-41C6-A63C-03B155D6053Aframe10" style="opacity:1;fill:none;" stroke="#000000" d="M6.402,0.5h14.5c0,0-5.833,2.833-5.833,5.583s4.417,6,4.417,9.167    s-4.167,5.083-4.167,5.083H0.235c0,0,5-2.667,5-5s-4.583-6.75-4.583-9.25S6.402,0.5,6.402,0.5z"/> 		<path oryx:anchors="top left" id="_EE1323A6-0BB4-41C6-A63C-03B155D6053Aframe11" style="opacity:1;fill:none;stroke-width:1.5" d="M 3.5 4.5 L 13.5 4.5" stroke="#000000"/> 		<path oryx:anchors="top left" id="_EE1323A6-0BB4-41C6-A63C-03B155D6053Aframe12" style="opacity:1;fill:none;stroke-width:1.5" d="M 3.8 8.5 L 13.8 8.5" stroke="#000000"/> 		<path oryx:anchors="top left" id="_EE1323A6-0BB4-41C6-A63C-03B155D6053Aframe13" style="opacity:1;fill:none;stroke-width:1.5" d="M 6.3 12.5 L 16.3 12.5" stroke="#000000"/> 		<path oryx:anchors="top left" id="_EE1323A6-0BB4-41C6-A63C-03B155D6053Aframe14" style="opacity:1;fill:none;stroke-width:1.5" d="M 6.5 16.5 L 16.5 16.5" stroke="#000000"/> 	</g> 	 	<g id="_EE1323A6-0BB4-41C6-A63C-03B155D6053AuserTask" transform="scale(0.7,0.7) translate(8,8)" display="none"> 		<path id="_EE1323A6-0BB4-41C6-A63C-03B155D6053Aframe15" oryx:anchors="top left" style="opacity:1;fill:#F4F6F7" stroke="#000000" d="M0.585,24.167h24.083v-7.833c0,0-2.333-3.917-7.083-5.167h-9.25    c-4.417,1.333-7.833,5.75-7.833,5.75L0.585,24.167z"/> 		<path id="_EE1323A6-0BB4-41C6-A63C-03B155D6053Aframe16" oryx:anchors="top left" style="opacity:1;fill:none" d="M 6 20 L 6 24" stroke="#000000"/> 		<path id="_EE1323A6-0BB4-41C6-A63C-03B155D6053Aframe17" oryx:anchors="top left" style="opacity:1;fill:none" d="M 20 20 L 20 24" stroke="#000000"/> 		<circle id="_EE1323A6-0BB4-41C6-A63C-03B155D6053Aframe18" oryx:anchors="top left" fill="black" cx="13.002" cy="5.916" r="5.417" stroke="#000000"/> 		<path id="_EE1323A6-0BB4-41C6-A63C-03B155D6053Aframe19" oryx:anchors="top left" style="opacity:1;fill:#F0EFF0;" stroke="#000000" d="M8.043,7.083c0,0,2.814-2.426,5.376-1.807s4.624-0.693,4.624-0.693    c0.25,1.688,0.042,3.75-1.458,5.584c0,0,1.083,0.75,1.083,1.5s0.125,1.875-1,3s-5.5,1.25-6.75,0S8.668,12.834,8.668,12    s0.583-1.25,1.25-1.917C8.835,9.5,7.419,7.708,8.043,7.083z"/> 	</g> 	 	<g id="_EE1323A6-0BB4-41C6-A63C-03B155D6053AserviceTask" transform="scale(0.7,0.7) translate(8,8)" display="inherit"> 		<polygon oryx:anchors="top left" id="_EE1323A6-0BB4-41C6-A63C-03B155D6053Aframe20" style="opacity:1;fill:#ffffff" stroke="#000000" points="15.392,5.064 17.954,2.502 20.347,4.895 17.786,7.455     18.729,9.732 22.353,9.732 22.353,13.115 18.731,13.115 17.788,15.392 20.351,17.955 17.958,20.347 15.397,17.786 13.12,18.729     13.12,22.353 9.737,22.353 9.737,18.731 7.46,17.788 4.897,20.35 2.506,17.958 5.066,15.397 4.124,13.12 0.5,13.12 0.5,9.737     4.121,9.737 5.065,7.461 2.503,4.898 4.895,2.506 7.455,5.066 9.732,4.125 9.732,0.5 13.116,0.5 13.116,4.121 "/> 		<circle oryx:anchors="top left" id="_EE1323A6-0BB4-41C6-A63C-03B155D6053Aframe21" style="opacity:1;fill:none" stroke="#000000" cx="11.427" cy="11.426" r="3.714"/> 		<polygon oryx:anchors="top left" id="_EE1323A6-0BB4-41C6-A63C-03B155D6053Aframe22" style="opacity:1;fill:#ffffff" stroke="#000000" points="21.392,11.064 23.954,8.502 26.347,10.895 23.786,13.455     24.729,15.732 28.353,15.732 28.353,19.115 24.731,19.115 23.788,21.392 26.351,23.955 23.958,26.347 21.397,23.786 19.12,24.729     19.12,28.353 15.737,28.353 15.737,24.731 13.46,23.788 10.897,26.35 8.506,23.958 11.066,21.397 10.124,19.12 6.5,19.12     6.5,15.737 10.121,15.737 11.065,13.461 8.503,10.898 10.895,8.506 13.455,11.066 15.732,10.125 15.732,6.5 19.116,6.5     19.116,10.121 "/> 		<circle oryx:anchors="top left" id="_EE1323A6-0BB4-41C6-A63C-03B155D6053Aframe23" style="opacity:1;fill:none;" stroke="#000000" cx="17.427" cy="17.426" r="3.714"/> 	</g> 	 	<g id="_EE1323A6-0BB4-41C6-A63C-03B155D6053AsendTask" display="none"> 		<path id="_EE1323A6-0BB4-41C6-A63C-03B155D6053Astframe24" oryx:anchors="left top" stroke="#FFFFFF" fill="black" stroke-width="1" d="M8,11 L8,21 L24,21 L24,11 L16,17z"/> 		<path id="_EE1323A6-0BB4-41C6-A63C-03B155D6053Astframe25" oryx:anchors="left top" stroke="#FFFFFF" fill="black" stroke-width="1" d="M7,10 L16,17 L25 10z"/> 	</g> 	 	<g id="_EE1323A6-0BB4-41C6-A63C-03B155D6053AreceiveTask" display="none"> 		<path id="_EE1323A6-0BB4-41C6-A63C-03B155D6053Aframe26" oryx:anchors="left top" stroke="#000000" fill="none" stroke-width="1" d="M8,11 L8,21 L24,21 L24,11z M8,11 L16,17 L24,11"/> 	</g> 	 	<g id="_EE1323A6-0BB4-41C6-A63C-03B155D6053Anone" display="inherit"/>  	<g id="_EE1323A6-0BB4-41C6-A63C-03B155D6053Asequential" display="none">         <path oryx:anchors="bottom" fill="none" stroke="#000000" stroke-width="2" d=" M38.35 51  h10  M38.35 47  h10  M38.35 43  h10 " id="_EE1323A6-0BB4-41C6-A63C-03B155D6053A__EE1323A6-0BB4-41C6-A63C-03B155D6053A_20"/>     </g>   </g></g><g class="children" style="overflow:hidden"/><g class="edge"/></g><g class="controls"><g class="dockers"/><g class="magnets" transform="translate(92, 34)"><g pointer-events="all" display="none" transform="translate(-7, 5.75)"><circle cx="8" cy="8" r="4" stroke="none" fill="red" fill-opacity="0.3"/></g><g pointer-events="all" display="none" transform="translate(-7, 19.5)"><circle cx="8" cy="8" r="4" stroke="none" fill="red" fill-opacity="0.3"/></g><g pointer-events="all" display="none" transform="translate(-7, 33.25)"><circle cx="8" cy="8" r="4" stroke="none" fill="red" fill-opacity="0.3"/></g><g pointer-events="all" display="none" transform="translate(13.25, 46)"><circle cx="8" cy="8" r="4" stroke="none" fill="red" fill-opacity="0.3"/></g><g pointer-events="all" display="none" transform="translate(34.5, 46)"><circle cx="8" cy="8" r="4" stroke="none" fill="red" fill-opacity="0.3"/></g><g pointer-events="all" display="none" transform="translate(55.75, 46)"><circle cx="8" cy="8" r="4" stroke="none" fill="red" fill-opacity="0.3"/></g><g pointer-events="all" display="none" transform="translate(76, 5.75)"><circle cx="8" cy="8" r="4" stroke="none" fill="red" fill-opacity="0.3"/></g><g pointer-events="all" display="none" transform="translate(76, 19.5)"><circle cx="8" cy="8" r="4" stroke="none" fill="red" fill-opacity="0.3"/></g><g pointer-events="all" display="none" transform="translate(76, 33.25)"><circle cx="8" cy="8" r="4" stroke="none" fill="red" fill-opacity="0.3"/></g><g pointer-events="all" display="none" transform="translate(13.25, -7)"><circle cx="8" cy="8" r="4" stroke="none" fill="red" fill-opacity="0.3"/></g><g pointer-events="all" display="none" transform="translate(34.5, -7)"><circle cx="8" cy="8" r="4" stroke="none" fill="red" fill-opacity="0.3"/></g><g pointer-events="all" display="none" transform="translate(55.75, -7)"><circle cx="8" cy="8" r="4" stroke="none" fill="red" fill-opacity="0.3"/></g><g pointer-events="all" display="none" transform="translate(34.5, 19.5)"><circle cx="8" cy="8" r="4" stroke="none" fill="red" fill-opacity="0.3"/></g></g></g></g><g id="_4573D427-E7AE-4B73-815C-3A8BDA9F4A06" bpmn2nodeid="_A0F3871D-79FC-41A9-B1FD-C31A2F01886B"><g class="stencils" transform="translate(220, 45)"><g class="me"><g pointer-events="fill" id="_4573D427-E7AE-4B73-815C-3A8BDA9F4A06">      <defs id="_4573D427-E7AE-4B73-815C-3A8BDA9F4A06__4573D427-E7AE-4B73-815C-3A8BDA9F4A06_5"> 		<radialGradient id="_4573D427-E7AE-4B73-815C-3A8BDA9F4A06background" cx="10%" cy="10%" r="100%" fx="10%" fy="10%"> 			<stop offset="0%" stop-color="#ffffff" stop-opacity="1" id="_4573D427-E7AE-4B73-815C-3A8BDA9F4A06__4573D427-E7AE-4B73-815C-3A8BDA9F4A06_6"/> 			<stop id="_4573D427-E7AE-4B73-815C-3A8BDA9F4A06fill_el" offset="100%" stop-color="#ff6347" stop-opacity="1"/> 		</radialGradient> 	</defs> 	     <circle id="_4573D427-E7AE-4B73-815C-3A8BDA9F4A06bg_frame" cx="14" cy="14" r="14" stroke="#000000" fill="url(#_4573D427-E7AE-4B73-815C-3A8BDA9F4A06background) white" stroke-width="3"/> 	<text font-size="11" id="_4573D427-E7AE-4B73-815C-3A8BDA9F4A06text_name" x="14" y="30" oryx:align="top center" stroke="black" stroke-width="0pt" letter-spacing="-0.01px" fill="#000000" text-anchor="middle" transform="rotate(0 14 30)" visibility="inherit" oryx:fontSize="11"><tspan x="14" y="30" dy="11">subEnd</tspan></text>   </g></g><g class="children" style="overflow:hidden"/><g class="edge"/></g><g class="controls"><g class="dockers"/><g class="magnets" transform="translate(220, 45)"><g pointer-events="all" display="none" transform="translate(6, 6)"><circle cx="8" cy="8" r="4" stroke="none" fill="red" fill-opacity="0.3"/></g></g></g></g></g><g class="edge"/></g><g class="controls"><g class="dockers"/><g class="magnets" transform="translate(18, 125)"><g pointer-events="all" display="none" transform="translate(-8, 49.5)"><circle cx="8" cy="8" r="4" stroke="none" fill="red" fill-opacity="0.3"/></g><g pointer-events="all" display="none" transform="translate(132, 107)"><circle cx="8" cy="8" r="4" stroke="none" fill="red" fill-opacity="0.3"/></g><g pointer-events="all" display="none" transform="translate(272, 49.5)"><circle cx="8" cy="8" r="4" stroke="none" fill="red" fill-opacity="0.3"/></g><g pointer-events="all" display="none" transform="translate(132, -8)"><circle cx="8" cy="8" r="4" stroke="none" fill="red" fill-opacity="0.3"/></g><g pointer-events="all" display="none" transform="translate(132, 49.5)"><circle cx="8" cy="8" r="4" stroke="none" fill="red" fill-opacity="0.3"/></g></g></g></g></g><g class="edge"><g id="_9FA75BC9-4692-4645-82EA-354145ECAC67" bpmn2nodeid="_D86278B6-E299-4929-B2F8-7A434733510D"><g class="stencils"><g class="me"><g pointer-events="painted" bpmn2nodeid="_30A1A5CF-C258-430D-BA6B-66DCF286B33A"><path id="_9FA75BC9-4692-4645-82EA-354145ECAC67_1" d="M58.937491246766776 57.066684063794L119.48829000323323 57.320034686206 " stroke="#000000" fill="none" stroke-width="2" stroke-linecap="round" stroke-linejoin="round" marker-start="url(#_9FA75BC9-4692-4645-82EA-354145ECAC67start)" marker-end="url(#_9FA75BC9-4692-4645-82EA-354145ECAC67end)"/></g><text id="_9FA75BC9-4692-4645-82EA-354145ECAC67text_name" font-size="12" x="72.93749124676677" y="43.066684063794" oryx:edgePosition="startTop" stroke-width="0pt" letter-spacing="-0.01px" fill="#000000" text-anchor="start" transform="rotate(0.23972989608085982 58.937491246766776 57.066684063794)" visibility="inherit" oryx:fontSize="12"/></g><g class="children" style="overflow:hidden"/><g class="edge"/></g><g class="controls"><g class="dockers"/><g class="magnets"/></g></g><g id="_7A7F96EF-24DD-49D3-9DDF-35AEFA47BBDF" bpmn2nodeid="_8808550F-685C-4DF7-9907-7CB7D1D0DDE8"><g class="stencils"><g class="me"><g pointer-events="painted" bpmn2nodeid="_00695509-21A4-4586-B5B6-EF409A5CF32C"><path id="_7A7F96EF-24DD-49D3-9DDF-35AEFA47BBDF_1" d="M205.3671046205848 56.94806303063625L264.3477391294152 56.18865571936375 " stroke="#000000" fill="none" stroke-width="2" stroke-linecap="round" stroke-linejoin="round" marker-start="url(#_7A7F96EF-24DD-49D3-9DDF-35AEFA47BBDFstart)" marker-end="url(#_7A7F96EF-24DD-49D3-9DDF-35AEFA47BBDFend)"/></g><text id="_7A7F96EF-24DD-49D3-9DDF-35AEFA47BBDFtext_name" font-size="12" x="219.3671046205848" y="42.94806303063625" oryx:edgePosition="startTop" stroke-width="0pt" letter-spacing="-0.01px" fill="#000000" text-anchor="start" transform="rotate(359.2623268625678 205.3671046205848 56.94806303063625)" visibility="inherit" oryx:fontSize="12"/></g><g class="children" style="overflow:hidden"/><g class="edge"/></g><g class="controls"><g class="dockers"/><g class="magnets"/></g></g><g id="_DEBD2C35-B9E2-4449-9A79-64F981B0AAAE" bpmn2nodeid="_29E9859F-F6C4-4C33-807A-E112FD34194F"><g class="stencils"><g class="me"><g pointer-events="painted" bpmn2nodeid="_5A582BA6-B7EA-4EA6-AC4C-D2C2D3D9063A"><path id="_DEBD2C35-B9E2-4449-9A79-64F981B0AAAE_1" d="M63.695209496297316 185.2252900884636L109.04697800370269 185.8762724115364 " stroke="#000000" fill="none" stroke-width="2" stroke-linecap="round" stroke-linejoin="round" marker-start="url(#_DEBD2C35-B9E2-4449-9A79-64F981B0AAAEstart)" marker-end="url(#_DEBD2C35-B9E2-4449-9A79-64F981B0AAAEend)"/></g><text id="_DEBD2C35-B9E2-4449-9A79-64F981B0AAAEtext_name" font-size="12" x="77.69520949629731" y="171.2252900884636" oryx:edgePosition="startTop" stroke-width="0pt" letter-spacing="-0.01px" fill="#000000" text-anchor="start" transform="rotate(0.8223709799981975 63.695209496297316 185.2252900884636)" visibility="inherit" oryx:fontSize="12"/></g><g class="children" style="overflow:hidden"/><g class="edge"/></g><g class="controls"><g class="dockers"/><g class="magnets"/></g></g><g id="_1C8D544F-E7F9-4CB7-992F-B36D327FB5DD" bpmn2nodeid="_CBF04C50-DB56-4FC1-A7FB-810FCDD942DF"><g class="stencils"><g class="me"><g pointer-events="painted" bpmn2nodeid="_BDB4BD74-DB0A-413F-8AEE-B1ECE35919E7"><path id="_1C8D544F-E7F9-4CB7-992F-B36D327FB5DD_1" d="M195.96872807185852 186.21212762866318L228 186 L228 186 L237.50345424175512 185.20804547985375 " stroke="#000000" fill="none" stroke-width="2" stroke-linecap="round" stroke-linejoin="round" marker-start="url(#_1C8D544F-E7F9-4CB7-992F-B36D327FB5DDstart)" marker-end="url(#_1C8D544F-E7F9-4CB7-992F-B36D327FB5DDend)"/></g><text id="_1C8D544F-E7F9-4CB7-992F-B36D327FB5DDtext_name" font-size="12" x="209.96872807185852" y="172.21212762866318" oryx:edgePosition="startTop" stroke-width="0pt" letter-spacing="-0.01px" fill="#000000" text-anchor="start" transform="rotate(359.6205632985811 195.96872807185852 186.21212762866318)" visibility="inherit" oryx:fontSize="12"/></g><g class="children" style="overflow:hidden"/><g class="edge"/></g><g class="controls"><g class="dockers"/><g class="magnets"/></g></g></g><text id="_0F562909-8A58-4C83-A234-CB4F6E7856DF" style="stroke-width:1;fill:rgb(177,194,214);font-family:arial;font-weight:bold" font-size="12" onclick="ORYX.Plugins.CanvasTitle.openTextualAnalysis()" onmouseover="ORYX.Plugins.CanvasTitle.addToolTip('_0F562909-8A58-4C83-A234-CB4F6E7856DF')" transform="translate(10, 20)">Service Process v.1 (ProcessWithExceptionHandlingSignal)</text></g></g></svg>